<svg width="253" height="21" viewBox="0 0 253 21" fill="none" xmlns="http://www.w3.org/2000/svg">
<path d="M10.4 18.15C13.25 18.15 15.68 16.5 16.82 14.1H19.94C18.62 18.12 14.87 21 10.4 21C5.39 21 1.22 17.31 0.53 12.48C0.44 12 0.41 11.52 0.41 11.01C0.41 10.53 0.44 10.08 0.5 9.6C1.19 4.74 5.36 1.02 10.4 1.02C14.96 1.02 18.83 4.05 20.03 8.22H16.97C15.89 5.67 13.37 3.9 10.4 3.9C6.98 3.9 4.07 6.36 3.44 9.6C3.35 10.05 3.29 10.53 3.29 11.01C3.29 11.52 3.35 12 3.44 12.48C4.13 15.72 6.98 18.15 10.4 18.15ZM26.7645 11.76V18.15H41.5245V21H23.8845V5.4H26.7645V8.88H39.5745V11.76H26.7645ZM23.8845 1.08H41.5245V3.96H23.8845V1.08ZM47.2939 18.15H59.9239V21H44.4139V0.929999H47.2939V18.15ZM65.993 11.76V18.15H80.753V21H63.113V5.4H65.993V8.88H78.803V11.76H65.993ZM63.113 1.08H80.753V3.96H63.113V1.08ZM94.5563 9.6C96.6863 9.6 98.5463 10.77 99.5363 12.48C99.9863 13.32 100.286 14.28 100.286 15.3C100.286 16.35 99.9863 17.31 99.5363 18.15C98.5463 19.86 96.6863 21 94.5563 21H88.3763C86.2463 21 84.3863 19.86 83.3963 18.15C82.9463 17.34 82.6763 16.44 82.6463 15.45H85.5263C85.6163 16.95 86.8463 18.15 88.3763 18.15H94.5563C96.1163 18.15 97.4063 16.86 97.4063 15.3C97.4063 13.74 96.1163 12.48 94.5563 12.48H88.3463C86.7563 12.48 85.2863 11.82 84.2663 10.74C83.9363 10.41 83.6363 10.02 83.3963 9.6C82.9163 8.79 82.6463 7.8 82.6463 6.78C82.6463 5.76 82.9163 4.8 83.3963 3.96C84.3863 2.25 86.2463 1.08 88.3463 1.08H94.4063C94.4663 1.08 94.5263 1.08 94.5563 1.08C94.6163 1.08 94.6463 1.08 94.7063 1.08C96.7763 1.14 98.5463 2.28 99.5063 3.96C99.5363 3.96 99.5363 3.96 99.5363 3.96C99.9863 4.74 100.256 5.67 100.286 6.63H97.4063C97.3163 5.16 96.1463 4.02 94.6763 3.96H88.3463C86.7863 3.96 85.5263 5.22 85.5263 6.78C85.5263 8.25 86.6363 9.45 88.0763 9.6C88.1663 9.6 88.2563 9.6 88.3763 9.6C88.5263 9.6 88.7063 9.6 88.8563 9.6H94.5563ZM113.295 21H110.415V5.4H113.295V21ZM120.915 3.96H103.125V1.08H120.915V3.96ZM123.779 21H126.659V1.05H123.779V21ZM126.569 1.14V20.91H123.869V1.14H126.569ZM123.779 1.05H126.659V21H123.779V1.05ZM130.181 21L138.431 6.15L140.321 9.6L133.991 21H130.181ZM143.171 4.44L152.321 21H148.541L141.251 7.86L139.361 4.44L141.251 1.02L143.171 4.44ZM168.31 21V7.14L171.19 10.02V21H168.31ZM181.27 1.08H184.12V20.91L181.27 18.06L171.19 7.98L168.31 5.1V1.05L181.27 13.98V1.08ZM196.67 3.93C192.74 3.93 189.56 7.14 189.56 11.04C189.56 14.97 192.74 18.15 196.67 18.15C200.57 18.15 203.75 14.97 203.75 11.04C203.75 7.14 200.57 3.93 196.67 3.93ZM186.68 11.04C186.68 5.52 191.15 1.08 196.67 1.08C202.16 1.08 206.63 5.52 206.63 11.04C206.63 16.56 202.16 21 196.67 21C191.15 21 186.68 16.56 186.68 11.04ZM209.473 21H212.353V1.05H209.473V21ZM212.263 1.14V20.91H209.563V1.14H212.263ZM209.473 1.05H212.353V21H209.473V1.05ZM227.485 10.71L233.755 21H230.395L224.665 11.61L224.485 11.34C224.485 11.34 224.485 11.34 224.455 11.34C224.395 11.37 224.365 11.37 224.305 11.4C224.275 11.4 224.275 11.4 224.245 11.4C224.185 11.43 224.095 11.43 224.035 11.46C223.855 11.49 223.675 11.52 223.525 11.55C223.465 11.58 223.405 11.58 223.375 11.58C223.345 11.58 223.315 11.58 223.285 11.61C223.225 11.61 223.165 11.61 223.105 11.61C223.075 11.64 223.045 11.64 223.015 11.64C222.955 11.64 222.865 11.64 222.805 11.67C222.715 11.67 222.655 11.67 222.565 11.67C222.475 11.7 222.385 11.7 222.325 11.7C222.295 11.7 222.295 11.7 222.265 11.7C222.235 11.7 222.175 11.7 222.115 11.7C222.085 11.7 222.025 11.7 221.995 11.7C221.935 11.7 221.875 11.7 221.785 11.7H218.095V21H215.215V1.02H231.745C231.775 1.26 231.775 1.5 231.775 1.74C231.775 2.49 231.685 3.21 231.535 3.9C231.115 5.82 230.155 7.5 228.805 8.82C228.685 8.97 228.565 9.09 228.415 9.18C228.385 9.24 228.325 9.27 228.295 9.3L228.265 9.33C228.205 9.36 228.145 9.42 228.085 9.48C228.055 9.51 228.025 9.54 227.965 9.57C227.935 9.6 227.905 9.63 227.875 9.63C227.785 9.72 227.665 9.81 227.545 9.9C227.485 9.93 227.425 9.96 227.395 9.99H227.365C227.335 10.05 227.275 10.08 227.215 10.11C227.215 10.11 227.215 10.11 227.185 10.11C227.185 10.14 227.155 10.14 227.125 10.17L227.485 10.71ZM224.605 8.25C225.415 7.92 226.135 7.41 226.795 6.78C227.605 5.97 228.205 4.98 228.565 3.9H218.095V8.82H221.785C222.775 8.82 223.735 8.64 224.605 8.25ZM238.2 11.76V18.15H252.96V21H235.32V5.4H238.2V8.88H251.01V11.76H238.2ZM235.32 1.08H252.96V3.96H235.32V1.08Z" fill="white"/>
</svg>
