<svg width="18" height="16" viewBox="0 0 18 16" fill="none" xmlns="http://www.w3.org/2000/svg">
<path d="M8.99498 6.00033C8.63053 6.00033 8.29497 6.08921 7.98831 6.26699C7.68164 6.44477 7.43942 6.68699 7.26164 6.99366C7.08386 7.30033 6.99498 7.63588 6.99498 8.00033C6.99498 8.36477 7.08386 8.70033 7.26164 9.00699C7.43942 9.31366 7.68164 9.55588 7.98831 9.73366C8.29497 9.91144 8.63053 10.0003 8.99498 10.0003C9.35942 10.0003 9.69497 9.91144 10.0016 9.73366C10.3083 9.55588 10.5505 9.31366 10.7283 9.00699C10.9061 8.70033 10.995 8.36477 10.995 8.00033C10.995 7.63588 10.9061 7.30033 10.7283 6.99366C10.5505 6.68699 10.3083 6.44477 10.0016 6.26699C9.69497 6.08921 9.35942 6.00033 8.99498 6.00033ZM8.99498 4.66699C9.59942 4.66699 10.1572 4.81588 10.6683 5.11366C11.1794 5.41144 11.5839 5.81588 11.8816 6.32699C12.1794 6.8381 12.3283 7.39588 12.3283 8.00033C12.3283 8.60477 12.1794 9.16255 11.8816 9.67366C11.5839 10.1848 11.1794 10.5892 10.6683 10.887C10.1572 11.1848 9.59942 11.3337 8.99498 11.3337C8.39053 11.3337 7.83275 11.1848 7.32164 10.887C6.81053 10.5892 6.40609 10.1848 6.10831 9.67366C5.81053 9.16255 5.66164 8.60477 5.66164 8.00033C5.66164 7.39588 5.81053 6.8381 6.10831 6.32699C6.40609 5.81588 6.81053 5.41144 7.32164 5.11366C7.83275 4.81588 8.39053 4.66699 8.99498 4.66699ZM13.3283 4.49366C13.3283 4.72477 13.2461 4.92255 13.0816 5.08699C12.9172 5.25144 12.7216 5.33366 12.495 5.33366C12.2683 5.33366 12.0728 5.25144 11.9083 5.08699C11.7439 4.92255 11.6616 4.72699 11.6616 4.50033C11.6616 4.27366 11.7439 4.0781 11.9083 3.91366C12.0728 3.74921 12.2683 3.66699 12.495 3.66699C12.7216 3.66699 12.9172 3.74921 13.0816 3.91366C13.2461 4.0781 13.3283 4.27144 13.3283 4.49366ZM8.99498 2.66699C8.1772 2.66699 7.62164 2.66921 7.32831 2.67366C7.03498 2.6781 6.6972 2.68921 6.31497 2.70699C5.83497 2.72477 5.43497 2.79588 5.11497 2.92033C4.83942 3.02699 4.5972 3.18477 4.38831 3.39366C4.17942 3.60255 4.02164 3.84477 3.91497 4.12033C3.79053 4.44033 3.71942 4.84033 3.70164 5.32032C3.68386 5.68477 3.67275 6.01144 3.66831 6.30033C3.66386 6.58921 3.66164 7.15588 3.66164 8.00033C3.66164 8.8181 3.66386 9.37366 3.66831 9.66699C3.67275 9.96033 3.68386 10.2981 3.70164 10.6803C3.71942 11.1603 3.79053 11.5603 3.91497 11.8803C4.02164 12.1559 4.17942 12.3981 4.38831 12.607C4.5972 12.8159 4.83942 12.9692 5.11497 13.067C5.43497 13.2003 5.83497 13.2759 6.31497 13.2937C6.67942 13.3114 7.00609 13.3225 7.29497 13.327C7.58386 13.3314 8.15053 13.3337 8.99498 13.3337C9.81275 13.3337 10.3683 13.3314 10.6616 13.327C10.955 13.3225 11.2928 13.3114 11.675 13.2937C12.155 13.2759 12.555 13.2048 12.875 13.0803C13.1505 12.9737 13.3928 12.8159 13.6016 12.607C13.8105 12.3981 13.9639 12.1559 14.0616 11.8803C14.195 11.5603 14.2705 11.1603 14.2883 10.6803C14.3061 10.3159 14.3172 9.98921 14.3216 9.70033C14.3261 9.41144 14.3283 8.84477 14.3283 8.00033C14.3283 7.18255 14.3261 6.62699 14.3216 6.33366C14.3172 6.04033 14.3061 5.70255 14.2883 5.32032C14.2705 4.84033 14.1994 4.44033 14.075 4.12033C13.9683 3.84477 13.8105 3.60255 13.6016 3.39366C13.3928 3.18477 13.1505 3.02699 12.875 2.92033C12.555 2.79588 12.155 2.72477 11.675 2.70699C11.3105 2.68921 10.9839 2.6781 10.695 2.67366C10.4061 2.66921 9.83942 2.66699 8.99498 2.66699ZM8.99498 1.33366C9.86609 1.33366 10.4616 1.3381 10.7816 1.34699C11.0483 1.34699 11.3683 1.35588 11.7416 1.37366C12.3639 1.40032 12.9016 1.50255 13.355 1.68033C13.8083 1.8581 14.2039 2.11588 14.5416 2.45366C14.8794 2.79144 15.1372 3.18699 15.315 3.64033C15.4928 4.09366 15.595 4.63144 15.6216 5.25366C15.6394 5.63588 15.6483 5.95588 15.6483 6.21366C15.6572 6.55144 15.6616 7.15144 15.6616 8.01366C15.6616 8.87588 15.6572 9.46699 15.6483 9.78699C15.6483 10.0537 15.6394 10.3737 15.6216 10.747C15.595 11.3692 15.4928 11.907 15.315 12.3603C15.1372 12.8137 14.8794 13.2092 14.5416 13.547C14.2039 13.8848 13.8083 14.1425 13.355 14.3203C12.9016 14.4981 12.3639 14.6003 11.7416 14.627C11.3594 14.6448 11.0394 14.6537 10.7816 14.6537C10.4439 14.6625 9.84386 14.667 8.98164 14.667C8.11942 14.667 7.52831 14.6625 7.20831 14.6537C6.94164 14.6537 6.62164 14.6448 6.24831 14.627C5.62609 14.6003 5.08831 14.4981 4.63497 14.3203C4.18164 14.1425 3.78609 13.8848 3.44831 13.547C3.11053 13.2092 2.85275 12.8137 2.67497 12.3603C2.4972 11.907 2.39497 11.3692 2.36831 10.747C2.35053 10.3648 2.34164 10.0448 2.34164 9.78699C2.33275 9.44921 2.32831 8.84921 2.32831 7.98699C2.32831 7.12477 2.33275 6.53366 2.34164 6.21366C2.34164 5.94699 2.35053 5.62699 2.36831 5.25366C2.39497 4.63144 2.4972 4.09366 2.67497 3.64033C2.85275 3.18699 3.11053 2.79144 3.44831 2.45366C3.78609 2.11588 4.18164 1.8581 4.63497 1.68033C5.08831 1.50255 5.62609 1.40032 6.24831 1.37366C6.63053 1.35588 6.95053 1.34699 7.20831 1.34699C7.54609 1.3381 8.14164 1.33366 8.99498 1.33366Z" fill="white"/>
</svg>
