<svg width="18" height="16" viewBox="0 0 18 16" fill="none" xmlns="http://www.w3.org/2000/svg">
<path d="M8.83497 6.20048C9.14608 5.87159 9.49275 5.6227 9.87497 5.45381C10.2839 5.26715 10.715 5.17381 11.1683 5.17381C11.8261 5.16493 12.4372 5.32493 13.0016 5.65382C13.5661 5.9827 14.0127 6.42937 14.3416 6.99381C14.6705 7.55826 14.835 8.16937 14.835 8.82715V13.8271H13.5016V8.82715C13.5016 8.40937 13.395 8.0227 13.1816 7.66715C12.9683 7.31159 12.6839 7.02715 12.3283 6.81382C11.9727 6.60048 11.5839 6.49381 11.1616 6.49381C10.7394 6.49381 10.3505 6.60048 9.99497 6.81382C9.63941 7.02715 9.35719 7.31159 9.1483 7.66715C8.93941 8.0227 8.83497 8.41382 8.83497 8.84048V13.8271H7.50164V5.49381H8.83497V6.20048ZM4.15497 4.16048C3.87941 4.16048 3.64386 4.06493 3.4483 3.87381C3.25275 3.6827 3.15497 3.44715 3.15497 3.16715C3.15497 2.88715 3.25275 2.65159 3.4483 2.46048C3.64386 2.26937 3.88163 2.17159 4.16163 2.16715C4.44164 2.1627 4.67719 2.25826 4.8683 2.45381C5.05941 2.64937 5.15497 2.88715 5.15497 3.16715C5.15497 3.44715 5.05941 3.6827 4.8683 3.87381C4.67719 4.06493 4.43941 4.16048 4.15497 4.16048ZM3.4883 5.49381H4.82164V13.8271H3.4883V5.49381Z" fill="white"/>
</svg>
