<svg width="23" height="21" viewBox="0 0 23 21" fill="none" xmlns="http://www.w3.org/2000/svg">
<path d="M11.6702 5.82769C12.3702 6.37603 12.9243 7.0527 13.3327 7.8577C13.741 8.68603 13.9452 9.56686 13.9452 10.5002C13.9452 11.4335 13.741 12.3144 13.3327 13.1427C12.9243 13.9477 12.3702 14.6244 11.6702 15.1727C10.9702 14.6244 10.416 13.9477 10.0077 13.1427C9.59933 12.3144 9.39517 11.4335 9.39517 10.5002C9.39517 9.56686 9.59933 8.68603 10.0077 7.8577C10.416 7.0527 10.9702 6.37603 11.6702 5.82769ZM10.9177 5.3202C10.171 5.9502 9.58767 6.70853 9.16767 7.59519C8.736 8.51686 8.52017 9.4852 8.52017 10.5002C8.52017 11.5152 8.736 12.4835 9.16767 13.4052C9.58767 14.2919 10.1652 15.0502 10.9002 15.6802C10.0018 16.1935 9.0335 16.4502 7.99517 16.4502C6.92183 16.4502 5.9185 16.176 4.98517 15.6277C4.08683 15.1027 3.37517 14.3969 2.85017 13.5102C2.3135 12.5769 2.04517 11.5735 2.04517 10.5002C2.04517 9.42686 2.3135 8.42353 2.85017 7.4902C3.37517 6.60353 4.08683 5.8977 4.98517 5.37269C5.9185 4.82436 6.92183 4.5502 7.99517 4.5502C9.0335 4.5502 10.0077 4.80686 10.9177 5.3202ZM12.4402 15.6802C13.1752 15.0502 13.7527 14.2919 14.1727 13.4052C14.6043 12.4835 14.8202 11.5152 14.8202 10.5002C14.8202 9.4852 14.6043 8.51686 14.1727 7.59519C13.7527 6.70853 13.1693 5.9502 12.4227 5.3202C13.3327 4.80686 14.3068 4.5502 15.3452 4.5502C16.4185 4.5502 17.4218 4.82436 18.3552 5.37269C19.2535 5.8977 19.9652 6.60353 20.4902 7.4902C21.0268 8.42353 21.2952 9.42686 21.2952 10.5002C21.2952 11.5735 21.0268 12.5769 20.4902 13.5102C19.9652 14.3969 19.2535 15.1027 18.3552 15.6277C17.4218 16.176 16.4185 16.4502 15.3452 16.4502C14.3068 16.4502 13.3385 16.1935 12.4402 15.6802Z" fill="#6B7280"/>
</svg>
