<svg width="181" height="30" viewBox="0 0 181 30" fill="none" xmlns="http://www.w3.org/2000/svg">
<path d="M12.59 29.15C10.21 29.15 8.14 28.72 6.38 27.86C4.62 26.98 3.27 25.74 2.33 24.14C1.39 22.54 0.92 20.68 0.92 18.56C0.92 15.62 1.47 13.01 2.57 10.73C3.69 8.45 5.2 6.69 7.1 5.45C9 4.19 11.11 3.56 13.43 3.56C15.59 3.56 17.23 4.12 18.35 5.24C19.47 6.34 20.03 7.8 20.03 9.62C20.03 10.84 19.81 11.82 19.37 12.56C18.95 13.3 18.34 13.67 17.54 13.67C16.98 13.67 16.54 13.54 16.22 13.28C15.9 13.02 15.74 12.64 15.74 12.14C15.74 11.96 15.78 11.63 15.86 11.15C15.98 10.55 16.04 10.07 16.04 9.71C16.04 7.89 15.07 6.98 13.13 6.98C11.81 6.98 10.55 7.41 9.35 8.27C8.15 9.13 7.18 10.4 6.44 12.08C5.7 13.74 5.33 15.72 5.33 18.02C5.33 20.42 6 22.28 7.34 23.6C8.68 24.9 10.66 25.55 13.28 25.55C14.58 25.55 15.89 25.39 17.21 25.07C18.55 24.73 20.03 24.22 21.65 23.54C21.95 23.42 22.2 23.36 22.4 23.36C22.72 23.36 22.96 23.48 23.12 23.72C23.28 23.96 23.36 24.27 23.36 24.65C23.36 25.87 22.7 26.77 21.38 27.35C19.96 27.97 18.48 28.43 16.94 28.73C15.42 29.01 13.97 29.15 12.59 29.15ZM34.0934 22.31C34.3534 22.31 34.5534 22.43 34.6934 22.67C34.8534 22.91 34.9334 23.24 34.9334 23.66C34.9334 24.46 34.7434 25.08 34.3634 25.52C33.6234 26.42 32.5734 27.25 31.2134 28.01C29.8734 28.77 28.4334 29.15 26.8934 29.15C24.7934 29.15 23.1634 28.58 22.0034 27.44C20.8434 26.3 20.2634 24.74 20.2634 22.76C20.2634 21.38 20.5534 20.1 21.1334 18.92C21.7134 17.72 22.5134 16.77 23.5334 16.07C24.5734 15.37 25.7434 15.02 27.0434 15.02C28.2034 15.02 29.1334 15.37 29.8334 16.07C30.5334 16.75 30.8834 17.68 30.8834 18.86C30.8834 20.24 30.3834 21.43 29.3834 22.43C28.4034 23.41 26.7334 24.19 24.3734 24.77C24.8734 25.69 25.8234 26.15 27.2234 26.15C28.1234 26.15 29.1434 25.84 30.2834 25.22C31.4434 24.58 32.4434 23.75 33.2834 22.73C33.5234 22.45 33.7934 22.31 34.0934 22.31ZM26.5334 17.96C25.7934 17.96 25.1634 18.39 24.6434 19.25C24.1434 20.11 23.8934 21.15 23.8934 22.37V22.43C25.0734 22.15 26.0034 21.73 26.6834 21.17C27.3634 20.61 27.7034 19.96 27.7034 19.22C27.7034 18.84 27.5934 18.54 27.3734 18.32C27.1734 18.08 26.8934 17.96 26.5334 17.96ZM43.8608 22.31C44.1208 22.31 44.3208 22.43 44.4608 22.67C44.6208 22.91 44.7008 23.24 44.7008 23.66C44.7008 24.46 44.5108 25.08 44.1308 25.52C43.2708 26.58 42.3308 27.45 41.3108 28.13C40.3108 28.81 39.1708 29.15 37.8908 29.15C36.1308 29.15 34.8208 28.35 33.9608 26.75C33.1208 25.15 32.7008 23.08 32.7008 20.54C32.7008 18.1 33.0108 15.32 33.6308 12.2C34.2708 9.08 35.2008 6.4 36.4208 4.16C37.6608 1.92 39.1308 0.799998 40.8308 0.799998C41.7908 0.799998 42.5408 1.25 43.0808 2.15C43.6408 3.03 43.9208 4.3 43.9208 5.96C43.9208 8.34 43.2608 11.1 41.9408 14.24C40.6208 17.38 38.8308 20.49 36.5708 23.57C36.7108 24.39 36.9408 24.98 37.2608 25.34C37.5808 25.68 38.0008 25.85 38.5208 25.85C39.3408 25.85 40.0608 25.62 40.6808 25.16C41.3008 24.68 42.0908 23.87 43.0508 22.73C43.2908 22.45 43.5608 22.31 43.8608 22.31ZM40.1708 3.77C39.7108 3.77 39.1908 4.6 38.6108 6.26C38.0308 7.92 37.5208 9.98 37.0808 12.44C36.6408 14.9 36.4008 17.26 36.3608 19.52C37.7808 17.18 38.9108 14.84 39.7508 12.5C40.5908 10.14 41.0108 7.99 41.0108 6.05C41.0108 4.53 40.7308 3.77 40.1708 3.77ZM55.6559 22.31C55.9159 22.31 56.1159 22.43 56.2559 22.67C56.4159 22.91 56.4959 23.24 56.4959 23.66C56.4959 24.46 56.3059 25.08 55.9259 25.52C55.1859 26.42 54.1359 27.25 52.7759 28.01C51.4359 28.77 49.9959 29.15 48.4559 29.15C46.3559 29.15 44.7259 28.58 43.5659 27.44C42.4059 26.3 41.8259 24.74 41.8259 22.76C41.8259 21.38 42.1159 20.1 42.6959 18.92C43.2759 17.72 44.0759 16.77 45.0959 16.07C46.1359 15.37 47.3059 15.02 48.6059 15.02C49.7659 15.02 50.6959 15.37 51.3959 16.07C52.0959 16.75 52.4459 17.68 52.4459 18.86C52.4459 20.24 51.9459 21.43 50.9459 22.43C49.9659 23.41 48.2959 24.19 45.9359 24.77C46.4359 25.69 47.3859 26.15 48.7859 26.15C49.6859 26.15 50.7059 25.84 51.8459 25.22C53.0059 24.58 54.0059 23.75 54.8459 22.73C55.0859 22.45 55.3559 22.31 55.6559 22.31ZM48.0959 17.96C47.3559 17.96 46.7259 18.39 46.2059 19.25C45.7059 20.11 45.4559 21.15 45.4559 22.37V22.43C46.6359 22.15 47.5659 21.73 48.2459 21.17C48.9259 20.61 49.2659 19.96 49.2659 19.22C49.2659 18.84 49.1559 18.54 48.9359 18.32C48.7359 18.08 48.4559 17.96 48.0959 17.96ZM59.6333 29.81C58.5933 29.81 57.7933 29.57 57.2333 29.09C56.6933 28.61 56.4233 28.07 56.4233 27.47C56.4233 26.95 56.6133 26.5 56.9933 26.12C57.3733 25.74 57.9333 25.55 58.6733 25.55C58.9333 25.55 59.2333 25.58 59.5733 25.64C59.9333 25.68 60.2033 25.71 60.3833 25.73C60.3633 25.21 60.2433 24.72 60.0233 24.26C59.8233 23.8 59.5633 23.36 59.2433 22.94C58.9233 22.5 58.6233 22.12 58.3433 21.8C57.7233 22.98 57.1033 23.96 56.4833 24.74C55.8833 25.52 55.2233 26.26 54.5033 26.96C54.1433 27.32 53.7633 27.5 53.3633 27.5C53.0433 27.5 52.7833 27.39 52.5833 27.17C52.3833 26.93 52.2833 26.64 52.2833 26.3C52.2833 25.9 52.4233 25.53 52.7033 25.19L53.0933 24.71C54.1933 23.35 55.0233 22.23 55.5833 21.35C55.9233 20.77 56.3233 20 56.7833 19.04C57.2433 18.06 57.6933 17.05 58.1333 16.01C58.5133 15.13 59.3033 14.69 60.5033 14.69C61.0633 14.69 61.4533 14.74 61.6733 14.84C61.8933 14.94 62.0033 15.1 62.0033 15.32C62.0033 15.44 61.9633 15.63 61.8833 15.89C61.8033 16.15 61.6933 16.41 61.5533 16.67C61.1933 17.39 61.0133 18 61.0133 18.5C61.0133 18.8 61.1133 19.13 61.3133 19.49C61.5333 19.85 61.8633 20.3 62.3033 20.84C62.9433 21.68 63.4233 22.4 63.7433 23C64.0833 23.58 64.2533 24.22 64.2533 24.92C64.2533 25.12 64.2333 25.4 64.1933 25.76C65.1733 25.38 66.3233 24.37 67.6433 22.73C67.8833 22.45 68.1533 22.31 68.4533 22.31C68.7133 22.31 68.9133 22.43 69.0533 22.67C69.2133 22.91 69.2933 23.24 69.2933 23.66C69.2933 24.42 69.1033 25.04 68.7233 25.52C67.7233 26.76 66.7633 27.61 65.8433 28.07C64.9433 28.51 63.8233 28.75 62.4833 28.79C61.6833 29.47 60.7333 29.81 59.6333 29.81ZM80.236 22.31C80.496 22.31 80.696 22.43 80.836 22.67C80.996 22.91 81.076 23.24 81.076 23.66C81.076 24.46 80.886 25.08 80.506 25.52C79.646 26.58 78.706 27.45 77.686 28.13C76.666 28.81 75.496 29.15 74.176 29.15C70.096 29.15 68.056 26.28 68.056 20.54C68.056 19.66 68.086 18.77 68.146 17.87H66.976C66.376 17.87 65.966 17.76 65.746 17.54C65.546 17.32 65.446 16.97 65.446 16.49C65.446 15.37 65.896 14.81 66.796 14.81H68.506C68.846 12.61 69.366 10.6 70.066 8.78C70.766 6.96 71.606 5.51 72.586 4.43C73.586 3.35 74.656 2.81 75.796 2.81C76.636 2.81 77.296 3.18 77.776 3.92C78.256 4.66 78.496 5.59 78.496 6.71C78.496 9.81 77.196 12.51 74.596 14.81H77.956C78.276 14.81 78.506 14.88 78.646 15.02C78.786 15.16 78.856 15.42 78.856 15.8C78.856 17.18 77.726 17.87 75.466 17.87H71.806C71.766 18.87 71.746 19.65 71.746 20.21C71.746 22.29 71.986 23.75 72.466 24.59C72.966 25.43 73.746 25.85 74.806 25.85C75.666 25.85 76.426 25.59 77.086 25.07C77.746 24.55 78.526 23.77 79.426 22.73C79.666 22.45 79.936 22.31 80.236 22.31ZM74.986 5.69C74.686 5.69 74.346 6.07 73.966 6.83C73.606 7.57 73.256 8.61 72.916 9.95C72.596 11.27 72.326 12.74 72.106 14.36C73.286 13.34 74.166 12.2 74.746 10.94C75.346 9.66 75.646 8.5 75.646 7.46C75.646 6.28 75.426 5.69 74.986 5.69ZM82.5634 13.04C81.7234 13.04 81.0934 12.85 80.6734 12.47C80.2534 12.07 80.0434 11.52 80.0434 10.82C80.0434 10.12 80.3134 9.54 80.8534 9.08C81.4134 8.6 82.1034 8.36 82.9234 8.36C83.6634 8.36 84.2634 8.54 84.7234 8.9C85.1834 9.26 85.4134 9.77 85.4134 10.43C85.4134 11.23 85.1534 11.87 84.6334 12.35C84.1134 12.81 83.4234 13.04 82.5634 13.04ZM82.3234 29.15C81.0234 29.15 80.0734 28.69 79.4734 27.77C78.8934 26.85 78.6034 25.63 78.6034 24.11C78.6034 23.21 78.7134 22.06 78.9334 20.66C79.1734 19.24 79.4734 17.92 79.8334 16.7C80.0134 16.06 80.2534 15.62 80.5534 15.38C80.8534 15.14 81.3334 15.02 81.9934 15.02C83.0134 15.02 83.5234 15.36 83.5234 16.04C83.5234 16.54 83.3334 17.7 82.9534 19.52C82.4734 21.72 82.2334 23.21 82.2334 23.99C82.2334 24.59 82.3134 25.05 82.4734 25.37C82.6334 25.69 82.9034 25.85 83.2834 25.85C83.6434 25.85 84.0934 25.6 84.6334 25.1C85.1734 24.6 85.8934 23.81 86.7934 22.73C87.0334 22.45 87.3034 22.31 87.6034 22.31C87.8634 22.31 88.0634 22.43 88.2034 22.67C88.3634 22.91 88.4434 23.24 88.4434 23.66C88.4434 24.46 88.2534 25.08 87.8734 25.52C85.8934 27.94 84.0434 29.15 82.3234 29.15ZM89.4662 29.15C88.3262 29.15 87.3962 28.7 86.6762 27.8C85.9762 26.9 85.6262 25.72 85.6262 24.26C85.6262 22.66 85.9962 21.15 86.7362 19.73C87.4762 18.29 88.4562 17.14 89.6762 16.28C90.9162 15.4 92.2262 14.96 93.6062 14.96C94.0462 14.96 94.3362 15.05 94.4762 15.23C94.6362 15.39 94.7662 15.69 94.8662 16.13C95.2462 16.05 95.6662 16.01 96.1262 16.01C96.6062 16.01 96.9762 16.13 97.2362 16.37C97.4962 16.61 97.6262 16.95 97.6262 17.39C97.6262 17.85 97.5262 18.65 97.3262 19.79C97.1062 21.01 96.9362 22.18 96.8162 23.3C96.6962 24.4 96.6362 25.64 96.6362 27.02C96.6362 27.78 96.4762 28.33 96.1562 28.67C95.8562 28.99 95.3562 29.15 94.6562 29.15C93.9762 29.15 93.4662 28.99 93.1262 28.67C92.8062 28.33 92.6462 27.79 92.6462 27.05L92.6762 26.57C92.0562 28.29 90.9862 29.15 89.4662 29.15ZM90.6362 26.12C91.1962 26.12 91.7062 25.73 92.1662 24.95C92.6262 24.17 93.0362 22.78 93.3962 20.78L93.9662 17.75C93.1462 17.77 92.3862 18.09 91.6862 18.71C90.9862 19.31 90.4262 20.11 90.0062 21.11C89.5862 22.11 89.3762 23.17 89.3762 24.29C89.3762 24.89 89.4862 25.35 89.7062 25.67C89.9462 25.97 90.2562 26.12 90.6362 26.12ZM113.216 29.15C112.476 29.15 111.946 28.99 111.626 28.67C111.306 28.33 111.146 27.7 111.146 26.78C111.146 26.16 111.206 25.41 111.326 24.53C111.446 23.65 111.656 22.32 111.956 20.54C111.996 20.3 112.156 19.33 112.436 17.63C112.716 15.91 112.966 14.11 113.186 12.23C113.386 10.63 113.486 9.43 113.486 8.63C113.486 7.73 113.156 7.28 112.496 7.28C111.996 7.28 111.366 7.55 110.606 8.09C109.866 8.61 109.066 9.45 108.206 10.61C107.926 10.99 107.616 11.18 107.276 11.18C106.996 11.18 106.746 11.05 106.526 10.79C106.326 10.51 106.226 10.2 106.226 9.86C106.226 9.52 106.286 9.2 106.406 8.9C106.526 8.58 106.746 8.2 107.066 7.76C108.046 6.42 109.136 5.39 110.336 4.67C111.536 3.93 112.796 3.56 114.116 3.56C115.216 3.56 116.036 3.9 116.576 4.58C117.136 5.26 117.416 6.25 117.416 7.55C117.416 8.71 117.256 10.39 116.936 12.59C117.936 9.63 119.206 7.39 120.746 5.87C122.286 4.33 124.096 3.56 126.176 3.56C127.816 3.56 129.046 4.03 129.866 4.97C130.706 5.89 131.126 7.13 131.126 8.69C131.126 9.57 130.996 10.64 130.736 11.9L128.906 20.48C128.706 21.48 128.606 22.34 128.606 23.06C128.606 23.9 128.796 24.53 129.176 24.95C129.576 25.37 130.126 25.58 130.826 25.58C131.486 25.58 132.126 25.36 132.746 24.92C133.386 24.48 134.136 23.75 134.996 22.73C135.236 22.45 135.506 22.31 135.806 22.31C136.066 22.31 136.266 22.43 136.406 22.67C136.566 22.91 136.646 23.24 136.646 23.66C136.646 24.44 136.456 25.06 136.076 25.52C135.036 26.78 134.006 27.7 132.986 28.28C131.966 28.86 130.896 29.15 129.776 29.15C128.076 29.15 126.746 28.65 125.786 27.65C124.826 26.63 124.346 25.27 124.346 23.57C124.346 22.91 124.396 22.19 124.496 21.41C124.616 20.63 124.806 19.64 125.066 18.44L126.266 12.95C126.306 12.77 126.376 12.45 126.476 11.99C126.576 11.53 126.656 11.1 126.716 10.7C126.776 10.28 126.806 9.87 126.806 9.47C126.806 8.83 126.626 8.32 126.266 7.94C125.906 7.56 125.396 7.37 124.736 7.37C123.536 7.37 122.336 8.01 121.136 9.29C119.936 10.57 118.826 12.64 117.806 15.5C116.786 18.34 115.986 21.98 115.406 26.42C115.266 27.44 115.056 28.15 114.776 28.55C114.516 28.95 113.996 29.15 113.216 29.15ZM149.51 19.79C149.77 19.79 149.97 19.92 150.11 20.18C150.25 20.44 150.32 20.77 150.32 21.17C150.32 22.13 150.03 22.7 149.45 22.88C148.25 23.3 146.93 23.54 145.49 23.6C145.11 25.28 144.36 26.63 143.24 27.65C142.12 28.65 140.85 29.15 139.43 29.15C138.23 29.15 137.2 28.86 136.34 28.28C135.5 27.7 134.86 26.93 134.42 25.97C133.98 25.01 133.76 23.97 133.76 22.85C133.76 21.33 134.05 19.98 134.63 18.8C135.21 17.6 136.01 16.67 137.03 16.01C138.05 15.33 139.18 14.99 140.42 14.99C141.94 14.99 143.16 15.52 144.08 16.58C145.02 17.62 145.57 18.91 145.73 20.45C146.67 20.39 147.79 20.19 149.09 19.85C149.25 19.81 149.39 19.79 149.51 19.79ZM139.67 25.97C140.31 25.97 140.86 25.71 141.32 25.19C141.8 24.67 142.12 23.92 142.28 22.94C141.66 22.52 141.18 21.97 140.84 21.29C140.52 20.61 140.36 19.89 140.36 19.13C140.36 18.81 140.39 18.49 140.45 18.17H140.3C139.5 18.17 138.83 18.56 138.29 19.34C137.77 20.1 137.51 21.18 137.51 22.58C137.51 23.68 137.72 24.52 138.14 25.1C138.58 25.68 139.09 25.97 139.67 25.97ZM151.675 13.04C150.835 13.04 150.205 12.85 149.785 12.47C149.365 12.07 149.155 11.52 149.155 10.82C149.155 10.12 149.425 9.54 149.965 9.08C150.525 8.6 151.215 8.36 152.035 8.36C152.775 8.36 153.375 8.54 153.835 8.9C154.295 9.26 154.525 9.77 154.525 10.43C154.525 11.23 154.265 11.87 153.745 12.35C153.225 12.81 152.535 13.04 151.675 13.04ZM151.435 29.15C150.135 29.15 149.185 28.69 148.585 27.77C148.005 26.85 147.715 25.63 147.715 24.11C147.715 23.21 147.825 22.06 148.045 20.66C148.285 19.24 148.585 17.92 148.945 16.7C149.125 16.06 149.365 15.62 149.665 15.38C149.965 15.14 150.445 15.02 151.105 15.02C152.125 15.02 152.635 15.36 152.635 16.04C152.635 16.54 152.445 17.7 152.065 19.52C151.585 21.72 151.345 23.21 151.345 23.99C151.345 24.59 151.425 25.05 151.585 25.37C151.745 25.69 152.015 25.85 152.395 25.85C152.755 25.85 153.205 25.6 153.745 25.1C154.285 24.6 155.005 23.81 155.905 22.73C156.145 22.45 156.415 22.31 156.715 22.31C156.975 22.31 157.175 22.43 157.315 22.67C157.475 22.91 157.555 23.24 157.555 23.66C157.555 24.46 157.365 25.08 156.985 25.52C155.005 27.94 153.155 29.15 151.435 29.15ZM157.258 29.15C156.498 29.15 155.958 28.75 155.638 27.95C155.338 27.15 155.188 25.87 155.188 24.11C155.188 21.51 155.558 19.04 156.298 16.7C156.478 16.12 156.768 15.7 157.168 15.44C157.588 15.16 158.168 15.02 158.908 15.02C159.308 15.02 159.588 15.07 159.748 15.17C159.908 15.27 159.988 15.46 159.988 15.74C159.988 16.06 159.838 16.78 159.538 17.9C159.338 18.7 159.178 19.4 159.058 20C158.938 20.6 158.838 21.34 158.758 22.22C159.418 20.5 160.158 19.1 160.978 18.02C161.798 16.94 162.598 16.17 163.378 15.71C164.178 15.25 164.908 15.02 165.568 15.02C166.868 15.02 167.518 15.67 167.518 16.97C167.518 17.23 167.428 17.86 167.248 18.86C167.088 19.66 167.008 20.16 167.008 20.36C167.008 21.06 167.258 21.41 167.758 21.41C168.318 21.41 169.038 20.97 169.918 20.09C170.178 19.83 170.448 19.7 170.728 19.7C170.988 19.7 171.188 19.82 171.327 20.06C171.488 20.28 171.568 20.58 171.568 20.96C171.568 21.7 171.368 22.28 170.968 22.7C170.408 23.28 169.748 23.78 168.988 24.2C168.248 24.6 167.458 24.8 166.618 24.8C165.558 24.8 164.748 24.53 164.188 23.99C163.648 23.45 163.378 22.72 163.378 21.8C163.378 21.5 163.408 21.2 163.468 20.9C163.508 20.5 163.528 20.23 163.528 20.09C163.528 19.77 163.418 19.61 163.198 19.61C162.898 19.61 162.498 19.95 161.998 20.63C161.518 21.29 161.038 22.17 160.558 23.27C160.078 24.37 159.688 25.53 159.388 26.75C159.168 27.69 158.908 28.33 158.608 28.67C158.328 28.99 157.878 29.15 157.258 29.15ZM179.52 23.21C179.78 23.21 179.98 23.33 180.12 23.57C180.28 23.81 180.36 24.14 180.36 24.56C180.36 25.28 180.19 25.9 179.85 26.42C179.29 27.28 178.55 27.95 177.63 28.43C176.73 28.91 175.65 29.15 174.39 29.15C172.47 29.15 170.98 28.58 169.92 27.44C168.86 26.28 168.33 24.72 168.33 22.76C168.33 21.38 168.62 20.1 169.2 18.92C169.78 17.72 170.58 16.77 171.6 16.07C172.64 15.37 173.81 15.02 175.11 15.02C176.27 15.02 177.2 15.37 177.9 16.07C178.6 16.75 178.95 17.68 178.95 18.86C178.95 20.24 178.45 21.43 177.45 22.43C176.47 23.41 174.79 24.19 172.41 24.77C172.89 25.69 173.7 26.15 174.84 26.15C175.66 26.15 176.33 25.96 176.85 25.58C177.39 25.2 178.01 24.56 178.71 23.66C178.95 23.36 179.22 23.21 179.52 23.21ZM174.6 17.96C173.86 17.96 173.23 18.39 172.71 19.25C172.21 20.11 171.96 21.15 171.96 22.37V22.43C173.14 22.15 174.07 21.73 174.75 21.17C175.43 20.61 175.77 19.96 175.77 19.22C175.77 18.84 175.66 18.54 175.44 18.32C175.24 18.08 174.96 17.96 174.6 17.96Z" fill="white"/>
</svg>
