<svg width="23" height="21" viewBox="0 0 23 21" fill="none" xmlns="http://www.w3.org/2000/svg">
<path d="M19.135 7.12285C19.5433 7.85785 19.6308 8.83202 19.3975 10.0454C19.0825 11.6204 18.4058 12.7812 17.3675 13.5279C16.4342 14.1929 15.2092 14.5254 13.6925 14.5254H13.255C13.08 14.5254 12.9283 14.5808 12.8 14.6916C12.6717 14.8024 12.59 14.9454 12.555 15.1204L11.9425 18.9529C11.9192 19.1162 11.8404 19.2562 11.7062 19.3729C11.5721 19.4895 11.4233 19.5479 11.26 19.5479H8.31999C8.19166 19.5479 8.08666 19.4983 8.00499 19.3991C7.92332 19.2999 7.89416 19.1862 7.91749 19.0579L8.05749 18.0779H9.38749L10.2275 12.8104H11.435C13.4883 12.8104 15.1712 12.332 16.4837 11.3754C17.7962 10.4187 18.68 9.00118 19.135 7.12285ZM16.545 2.67785C16.8717 3.05119 17.0875 3.46243 17.1925 3.9116C17.2975 4.36077 17.2975 4.90619 17.1925 5.54785L17.14 5.86285C16.825 7.49619 16.1542 8.70368 15.1275 9.48535C14.1358 10.2437 12.7767 10.6229 11.05 10.6229H9.40499C9.13666 10.6229 8.89166 10.7045 8.66999 10.8679C8.44832 11.0312 8.30249 11.2412 8.23249 11.4979H8.21499L7.39249 16.6604H4.29499C4.25999 16.6604 4.24832 16.6429 4.25999 16.6079L6.53499 2.15285C6.56999 1.95452 6.66332 1.78827 6.81499 1.6541C6.96666 1.51994 7.14749 1.45285 7.35749 1.45285H12.59C14.515 1.45285 15.8333 1.86119 16.545 2.67785Z" fill="#6B7280"/>
</svg>
