<svg width="23" height="21" viewBox="0 0 23 21" fill="none" xmlns="http://www.w3.org/2000/svg">
<path d="M1.82495 3.5H21.075V5.25H1.82495V3.5ZM1.82495 15.75H21.075V17.5H1.82495V15.75ZM18.1175 13.055L17.96 12.285H16.2625L15.9825 13.0375L14.6175 13.055L16.5775 8.365C16.6941 8.09667 16.8925 7.9625 17.1725 7.9625H18.275L19.325 13.055H18.1175ZM16.6475 11.2525H17.75L17.33 9.345L16.6475 11.2525ZM7.84495 7.9625H9.20995L7.09245 13.055H5.69245C5.22578 11.235 4.88162 9.8875 4.65995 9.0125C4.58995 8.7325 4.43828 8.55458 4.20495 8.47875C3.97162 8.40292 3.58662 8.2775 3.04995 8.1025V7.9625H5.23745C5.62245 7.9625 5.84995 8.14917 5.91995 8.5225L6.46245 11.41L7.84495 7.9625ZM11.1 7.9625L10.015 13.055H8.70245L9.78745 7.9625H11.1ZM13.76 7.875C13.935 7.875 14.1391 7.89833 14.3725 7.945C14.5825 7.99167 14.7633 8.04417 14.915 8.1025L14.6875 9.17C14.2908 9.00667 13.9466 8.925 13.655 8.925C13.41 8.925 13.2087 8.96875 13.0512 9.05625C12.8937 9.14375 12.815 9.24292 12.815 9.35375C12.815 9.46458 12.8791 9.5725 13.0075 9.6775C13.0891 9.73583 13.2466 9.82917 13.48 9.9575C13.6783 10.0742 13.8358 10.1675 13.9525 10.2375C14.2441 10.4242 14.4483 10.6225 14.565 10.8325C14.6466 10.9958 14.6816 11.2 14.67 11.445C14.67 11.7367 14.5854 12.0108 14.4162 12.2675C14.247 12.5242 14.005 12.7283 13.69 12.88C13.3283 13.0433 12.9083 13.125 12.43 13.125C12.0916 13.125 11.8291 13.1075 11.6425 13.0725C11.4558 13.0375 11.2166 12.9675 10.925 12.8625L11.17 11.76C11.4616 11.8883 11.692 11.9729 11.8612 12.0138C12.0304 12.0546 12.2316 12.075 12.465 12.075C12.6983 12.075 12.8966 12.0312 13.06 11.9437C13.2233 11.8562 13.305 11.7367 13.305 11.585C13.305 11.4683 13.2641 11.3721 13.1825 11.2962C13.1008 11.2204 12.9316 11.1067 12.675 10.955H12.6575C12.2958 10.7567 12.0333 10.5817 11.87 10.43C11.6016 10.1617 11.4675 9.85833 11.4675 9.52C11.4675 9.03 11.6804 8.63333 12.1062 8.33C12.532 8.02667 13.0833 7.875 13.76 7.875Z" fill="#6B7280"/>
</svg>
